<svg width="18" height="18" viewBox="0 0 18 18" fill="none" xmlns="http://www.w3.org/2000/svg">
<g clip-path="url(#clip0_10_146)">
<path d="M4.18188 13.1014H13.9387" stroke="#A8A7A6" stroke-width="1.14" stroke-linecap="round"/>
<path fill-rule="evenodd" clip-rule="evenodd" d="M13.3634 17H4.63658C4.44647 17 4.28853 16.8656 4.27434 16.6922L3.57067 8.31505C2.12549 8.16159 1 7.03186 1 5.66631C1 4.19324 2.33735 2.94993 3.92061 2.94993C4.25164 2.94993 4.57699 3.00889 4.87965 3.12333C5.39038 1.83667 6.97742 1 8.99953 1C10.8996 1 12.2285 1.70402 13.0504 3.15021C13.3729 3.01756 13.7228 2.94906 14.0794 2.94906C15.6626 2.94993 17 4.19324 17 5.66631C17 7.03186 15.8745 8.16159 14.4284 8.31505L13.7257 16.6922C13.7115 16.8656 13.5535 17 13.3634 17Z" stroke="#A8A7A6" stroke-width="1.14" stroke-linecap="round"/>
</g>
<defs>
<clipPath id="clip0_10_146">
<rect width="18" height="18" fill="white"/>
</clipPath>
</defs>
</svg>
