<svg width="16" height="16" viewBox="0 0 16 16" fill="none" xmlns="http://www.w3.org/2000/svg">
<path fill-rule="evenodd" clip-rule="evenodd" d="M12.05 16C11.176 16 9.074 15.5369 9.074 12.3529C9.074 10.4922 11.6 7.83153 11.6 5.93694C11.6 2.28988 11.295 3.13129 11.295 1.87388C11.295 0.617412 11.434 0.347294 12.037 0.347294C12.64 0.347294 12.887 0.685176 12.887 1.87388C12.887 3.06353 12.578 2.31624 12.578 5.93694C12.578 7.80706 15 10.5365 15 12.3529C15 15.5802 12.923 16 12.05 16ZM4.886 0C7.676 0 8.828 0.463059 8.828 3.64706C8.828 6.79529 7.048 6.01882 6.343 7.30541C5.807 8.28329 5.336 9.24424 5.336 10.0631C5.336 13.7101 5.739 12.8687 5.739 14.1252C5.739 15.3826 5.502 15.6527 4.899 15.6527C4.296 15.6527 4.03 15.3261 4.03 14.1374C4.03 12.9478 4.358 13.6828 4.358 10.0631C4.358 9.24988 3.9 8.27482 3.382 7.28188C2.709 5.99247 1 6.77929 1 3.64706C1 0.419765 2.096 0 4.886 0ZM3.391 2.23247V5.00518H3.884V2.23247H3.391ZM4.622 1.77788V5.43718H5.114V1.77788H4.622ZM5.852 2.23247V5.00518H6.345V2.23247H5.852Z" fill="#F79922"/>
</svg>
