<svg width="34" height="34" viewBox="0 0 34 34" fill="none" xmlns="http://www.w3.org/2000/svg">
<path fill-rule="evenodd" clip-rule="evenodd" d="M16.4384 10.4122L10.6094 15.995C10.2782 16.3123 10.0146 16.6934 9.83451 17.1152C9.65442 17.5371 9.56156 17.9911 9.56152 18.4498V23.1064C9.56152 23.4671 9.70481 23.813 9.95986 24.0681C10.2149 24.3231 10.5608 24.4664 10.9215 24.4664H13.802C14.1627 24.4664 14.5086 24.3231 14.7637 24.0681C15.0187 23.813 15.162 23.4671 15.162 23.1064V20.1103C15.162 18.4532 15.8882 17.6249 17.34 17.6249C18.7918 17.6249 19.5181 18.4532 19.5181 20.1103V23.1064C19.5181 23.4671 19.6614 23.813 19.9164 24.0681C20.1715 24.3231 20.5174 24.4664 20.8781 24.4664H23.7586C24.1193 24.4664 24.4652 24.3231 24.7202 24.0681C24.9753 23.813 25.1186 23.4671 25.1186 23.1064V18.4389C25.1186 17.9834 25.0272 17.5325 24.8496 17.113C24.6721 16.6935 24.412 16.314 24.085 15.997L18.3254 10.4176C18.0726 10.1727 17.7348 10.0354 17.383 10.0344C17.0311 10.0334 16.6925 10.1688 16.4384 10.4122Z" stroke="#4E3969" stroke-width="1.5"/>
</svg>
