<svg width="38" height="38" viewBox="0 0 38 38" fill="none" xmlns="http://www.w3.org/2000/svg">
<g clip-path="url(#clip0_23_998)">
<path d="M28.032 12.2443C30.176 14.3833 30.176 17.8514 28.032 19.9904L26.764 21.2547L26.79 21.2814L20.5788 27.4783C20.1434 27.9127 19.5706 28.1266 18.9999 28.12C18.4294 28.1266 17.8566 27.9127 17.4212 27.4783L11.21 21.2814L11.236 21.2547L9.96797 19.9904C7.82399 17.8514 7.82399 14.3833 9.96797 12.2443C12.1119 10.1053 15.588 10.1053 17.732 12.2443L19 13.5086L20.268 12.2443C22.412 10.1053 25.888 10.1053 28.032 12.2443Z" fill="#4B1375" fill-opacity="0.2" stroke="white" stroke-width="2" stroke-linecap="round" stroke-linejoin="round"/>
<path fill-rule="evenodd" clip-rule="evenodd" d="M16.9269 13.0513C15.2279 11.3562 12.4722 11.3562 10.7732 13.0513C9.07565 14.7449 9.07565 17.4897 10.7729 19.1831L12.0409 20.4474C12.0962 20.5025 12.1446 20.5619 12.1862 20.6245L12.2155 20.6735L18.2264 26.6713C18.4054 26.8498 18.6357 26.9548 18.8985 26.9761L19.0131 26.9801C19.2975 26.9833 19.5691 26.8754 19.7737 26.6713L25.7838 20.6735L25.8138 20.6245C25.8346 20.5932 25.8571 20.5627 25.8814 20.5331L25.9591 20.4474L27.2269 19.1834C28.9244 17.4897 28.9244 14.7449 27.2269 13.0513C25.5279 11.3562 22.7722 11.3562 21.0729 13.0515L19.805 14.3158C19.36 14.7595 18.64 14.7595 18.1951 14.3158L16.9269 13.0513Z" fill="url(#paint0_linear_23_998)"/>
</g>
<defs>
<linearGradient id="paint0_linear_23_998" x1="1737.19" y1="391.527" x2="-341.986" y2="2156.99" gradientUnits="userSpaceOnUse">
<stop stop-color="#FF9613"/>
<stop offset="0.248866" stop-color="#E338A1"/>
<stop offset="0.498289" stop-color="#992AA2"/>
<stop offset="0.750017" stop-color="#650A91"/>
<stop offset="1" stop-color="#4B1375"/>
</linearGradient>
<clipPath id="clip0_23_998">
<rect width="38" height="38" fill="white"/>
</clipPath>
</defs>
</svg>
