<svg width="16" height="16" viewBox="0 0 16 16" fill="none" xmlns="http://www.w3.org/2000/svg">
<g clip-path="url(#clip0_21_973)">
<path d="M11.0353 1.22546L14.3217 4.53117C14.4761 4.68496 14.5632 4.8937 14.5639 5.11163C14.5646 5.32957 14.4788 5.53889 14.3253 5.69363C14.2428 5.77562 14.1436 5.83882 14.0344 5.87895C12.6062 6.56336 11.8696 7.24714 11.3952 8.19786C10.8697 9.24756 11.1714 9.80601 11.1714 11.7794C11.1714 11.942 11.1231 12.1009 11.0325 12.2359C10.9419 12.3709 10.8132 12.476 10.6628 12.5376C10.5635 12.5795 10.4568 12.6014 10.349 12.6018C10.2411 12.6016 10.1343 12.58 10.0347 12.5382C9.93414 12.4972 9.84294 12.4362 9.76664 12.3589L7.10103 9.69326L1.61139 14.1488C1.58306 14.1711 1.54712 14.1814 1.51126 14.1776C1.47541 14.1738 1.4425 14.1561 1.41948 14.1284C1.39521 14.099 1.38166 14.0623 1.38111 14.0242C1.38057 13.9862 1.39306 13.949 1.41648 13.919L5.85576 8.44923L3.18894 5.78241C3.0743 5.66735 2.99628 5.52089 2.9647 5.36157C2.93312 5.20225 2.9494 5.03719 3.01149 4.8871C3.07358 4.73702 3.1787 4.60867 3.3136 4.51821C3.4485 4.42776 3.60716 4.37921 3.76958 4.37876C5.74361 4.37816 6.30147 4.67931 7.36796 4.15266C8.31928 3.67759 9.00245 2.94158 9.68746 1.51399C9.72755 1.40472 9.79031 1.30521 9.87161 1.22191C9.94825 1.14574 10.0391 1.08539 10.1391 1.04435C10.239 1.00331 10.3461 0.982328 10.4542 0.982662C10.5622 0.982996 10.6692 1.00463 10.7689 1.04629C10.8686 1.08795 10.9591 1.14882 11.0353 1.22546Z" fill="#F79922"/>
</g>
<defs>
<clipPath id="clip0_21_973">
<rect width="16" height="16" fill="white"/>
</clipPath>
</defs>
</svg>
