<svg width="16" height="16" viewBox="0 0 16 16" fill="none" xmlns="http://www.w3.org/2000/svg">
<g clip-path="url(#clip0_20_933)">
<path fill-rule="evenodd" clip-rule="evenodd" d="M2.99808 10C0.643076 8.657 -0.324924 6.975 0.0950763 4.952C0.680076 2.333 2.15208 1.19 4.51308 1.522C5.27208 0.509 6.43508 0 8.00308 0C9.57008 0 10.7301 0.508 11.4831 1.523C13.8331 1.353 15.3071 2.496 15.9031 4.952C16.3261 6.812 15.3581 8.495 13.0021 10V14.997C13.0021 15.551 12.5541 16 12.0021 16H3.99808C3.44508 16 2.99808 15.55 2.99808 14.997V10ZM6.50008 8.979V13.994H7.00008V8.979H6.50008ZM9.00108 8.979V13.994H9.50108V8.979H9.00008H9.00108Z" fill="#F79922"/>
</g>
<defs>
<clipPath id="clip0_20_933">
<rect width="16" height="16" fill="white"/>
</clipPath>
</defs>
</svg>
