<svg width="16" height="16" viewBox="0 0 16 16" fill="none" xmlns="http://www.w3.org/2000/svg">
<path fill-rule="evenodd" clip-rule="evenodd" d="M13.4769 10.333C13.4549 10.503 13.4439 10.674 13.4439 10.846V13.444C13.4439 14.304 12.7479 15 11.8889 15H4.10992C3.25092 15 2.55492 14.304 2.55492 13.444V10.941C2.55466 10.7376 2.54029 10.5344 2.51192 10.333H1.38992C1.33724 10.3357 1.28457 10.3276 1.23511 10.3093C1.18565 10.291 1.14043 10.2628 1.1022 10.2265C1.06397 10.1901 1.03353 10.1464 1.01273 10.0979C0.991927 10.0494 0.981201 9.99725 0.981201 9.94451C0.981201 9.89176 0.991927 9.83957 1.01273 9.7911C1.03353 9.74263 1.06397 9.6989 1.1022 9.66256C1.14043 9.62622 1.18565 9.59803 1.23511 9.57972C1.28457 9.5614 1.33724 9.55333 1.38992 9.55601H2.33292C2.20287 9.16447 2.01839 8.79316 1.78492 8.45301C3.36592 7.64901 5.43992 7.24801 8.00692 7.24801C10.5399 7.24801 12.6089 7.64901 14.2139 8.45301C13.9709 8.79201 13.7829 9.16401 13.6539 9.55601H14.6119C14.6646 9.55333 14.7173 9.5614 14.7667 9.57972C14.8162 9.59803 14.8614 9.62622 14.8996 9.66256C14.9379 9.6989 14.9683 9.74263 14.9891 9.7911C15.0099 9.83957 15.0206 9.89176 15.0206 9.94451C15.0206 9.99725 15.0099 10.0494 14.9891 10.0979C14.9683 10.1464 14.9379 10.1901 14.8996 10.2265C14.8614 10.2628 14.8162 10.291 14.7667 10.3093C14.7173 10.3276 14.6646 10.3357 14.6119 10.333H13.4769ZM9.55592 6.83301H6.44392C6.44392 6.18901 7.14092 5.66701 7.99992 5.66701C8.85992 5.66701 9.55592 6.18901 9.55592 6.83301ZM2.24192 7.55601C2.64592 6.89601 2.82292 6.30601 2.77292 5.78501C2.69792 5.00301 1.86792 4.77201 1.78192 3.76301C1.69492 2.75301 3.06792 1.78001 3.07492 1.77801C3.08292 1.77501 2.62692 2.77801 2.65792 3.68501C2.68792 4.59201 3.47792 4.96501 3.46392 5.61501C3.45392 6.04701 3.04792 6.69501 2.24192 7.55601ZM4.12792 6.77901C4.53192 6.11901 4.70892 5.52801 4.65892 5.00701C4.58392 4.22501 3.75492 3.99401 3.66792 2.98501C3.58092 1.97501 4.95392 1.00301 4.96192 1.00001C4.96892 0.997007 4.51192 2.00001 4.54392 2.90701C4.57392 3.81501 5.36392 4.18701 5.34992 4.83701C5.34092 5.26901 4.93392 5.91701 4.12792 6.77901Z" fill="#F79922"/>
</svg>
