<svg width="38" height="38" viewBox="0 0 38 38" fill="none" xmlns="http://www.w3.org/2000/svg">
<g clip-path="url(#clip0_23_984)">
<g filter="url(#filter0_df_23_984)">
<path d="M25.791 14.1931C27.403 15.7839 27.403 18.3631 25.791 19.9539L24.8376 20.8941L24.8572 20.914L20.1871 25.5227C19.8597 25.8457 19.429 26.0048 18.9999 25.9999C18.571 26.0048 18.1403 25.8457 17.8129 25.5227L13.1428 20.914L13.1624 20.8941L12.209 19.9539C10.597 18.3631 10.597 15.7839 12.209 14.1931C13.821 12.6023 16.4346 12.6023 18.0466 14.1931L19 15.1334L19.9534 14.1931C21.5654 12.6023 24.179 12.6023 25.791 14.1931Z" fill="black" fill-opacity="0.5" shape-rendering="crispEdges"/>
</g>
<path d="M28.032 12.2443C30.176 14.3833 30.176 17.8514 28.032 19.9904L26.764 21.2547L26.79 21.2814L20.5788 27.4783C20.1434 27.9127 19.5706 28.1266 18.9999 28.12C18.4294 28.1266 17.8566 27.9127 17.4212 27.4783L11.21 21.2814L11.236 21.2547L9.96797 19.9904C7.82399 17.8514 7.82399 14.3833 9.96797 12.2443C12.1119 10.1053 15.588 10.1053 17.732 12.2443L19 13.5086L20.268 12.2443C22.412 10.1053 25.888 10.1053 28.032 12.2443Z" fill="#4B1375" fill-opacity="0.2" stroke="white" stroke-width="2" stroke-linecap="round" stroke-linejoin="round"/>
</g>
<defs>
<filter id="filter0_df_23_984" x="-4" y="-2" width="46" height="43" filterUnits="userSpaceOnUse" color-interpolation-filters="sRGB">
<feFlood flood-opacity="0" result="BackgroundImageFix"/>
<feColorMatrix in="SourceAlpha" type="matrix" values="0 0 0 0 0 0 0 0 0 0 0 0 0 0 0 0 0 0 127 0" result="hardAlpha"/>
<feOffset dy="4"/>
<feGaussianBlur stdDeviation="2"/>
<feComposite in2="hardAlpha" operator="out"/>
<feColorMatrix type="matrix" values="0 0 0 0 0 0 0 0 0 0 0 0 0 0 0 0 0 0 0.25 0"/>
<feBlend mode="normal" in2="BackgroundImageFix" result="effect1_dropShadow_23_984"/>
<feBlend mode="normal" in="SourceGraphic" in2="effect1_dropShadow_23_984" result="shape"/>
<feGaussianBlur stdDeviation="7.5" result="effect2_foregroundBlur_23_984"/>
</filter>
<clipPath id="clip0_23_984">
<rect width="38" height="38" fill="white"/>
</clipPath>
</defs>
</svg>
