<svg width="38" height="38" viewBox="0 0 38 38" fill="none" xmlns="http://www.w3.org/2000/svg">
<path fill-rule="evenodd" clip-rule="evenodd" d="M16.9269 13.0513C15.2279 11.3562 12.4722 11.3562 10.7732 13.0513C9.07565 14.7449 9.07565 17.4897 10.7729 19.1831L12.0409 20.4474C12.0962 20.5025 12.1446 20.5619 12.1862 20.6245L12.2155 20.6735L18.2264 26.6713C18.4054 26.8498 18.6357 26.9548 18.8985 26.9761L19.0131 26.9801C19.2975 26.9833 19.5691 26.8754 19.7737 26.6713L25.7838 20.6735L25.8138 20.6245C25.8346 20.5932 25.8571 20.5627 25.8814 20.5331L25.9591 20.4474L27.2269 19.1834C28.9244 17.4897 28.9244 14.7449 27.2269 13.0513C25.5279 11.3562 22.7722 11.3562 21.0729 13.0515L19.805 14.3158C19.36 14.7595 18.64 14.7595 18.1951 14.3158L16.9269 13.0513Z" fill="url(#paint0_linear_23_1003)"/>
<defs>
<linearGradient id="paint0_linear_23_1003" x1="1737.19" y1="391.527" x2="-341.986" y2="2156.99" gradientUnits="userSpaceOnUse">
<stop stop-color="#FF9613"/>
<stop offset="0.248866" stop-color="#E338A1"/>
<stop offset="0.498289" stop-color="#992AA2"/>
<stop offset="0.750017" stop-color="#650A91"/>
<stop offset="1" stop-color="#4B1375"/>
</linearGradient>
</defs>
</svg>
