<svg width="16" height="16" viewBox="0 0 16 16" fill="none" xmlns="http://www.w3.org/2000/svg">
<path fill-rule="evenodd" clip-rule="evenodd" d="M11.906 2.0228C13.0381 2.11945 13.9519 3.21727 13.998 4.5985C14.0027 4.72554 13.9989 4.85368 13.9886 4.98073L13.6526 8.85947L12.881 8.765L13.2169 4.88517C13.2244 4.80264 13.2263 4.71903 13.2235 4.63542C13.1934 3.72003 12.5836 2.99575 11.8326 2.94145L11.0826 12.3288C11.0073 13.2757 10.3392 14 9.53927 14H5.1963C4.36629 14 3.68402 13.2225 3.64732 12.2355L3.47981 7.68998C3.45642 7.04934 3.33933 6.41788 3.1335 5.82228L2.02965 2.63741C1.99012 2.5249 1.99012 2.39906 2.02965 2.28655C2.06917 2.17405 2.14512 2.08373 2.24138 2.03475C2.2881 2.01179 2.33835 1.99997 2.38913 2H11.9079L11.906 2.0228ZM4.5225 5.23048V5.69197H6.46672V5.23048H4.52344H4.5225ZM4.86881 6.61497V7.07646H6.46014V6.61497H4.86881ZM5.03538 7.99946V8.46095H6.46014V7.99946H5.03538ZM5.03538 9.38395V9.84544H6.46014V9.38395H5.03538ZM5.03538 10.7684V11.2299H6.46014V10.7684H5.03538Z" fill="#F79922"/>
</svg>
