<svg width="36" height="36" viewBox="0 0 36 36" fill="none" xmlns="http://www.w3.org/2000/svg">
<path fill-rule="evenodd" clip-rule="evenodd" d="M16.036 12.3644C14.4265 10.7585 11.8158 10.7585 10.2062 12.3644C8.59804 13.9689 8.59804 16.5692 10.2062 18.1737L11.4073 19.3712C11.4746 19.4384 11.5313 19.5122 11.5772 19.5907L17.2672 25.2675C17.4655 25.4654 17.725 25.5631 17.9876 25.5601C17.9959 25.56 18.0042 25.56 18.0124 25.5601C18.2753 25.5631 18.5347 25.4654 18.733 25.2675L24.423 19.5907C24.4689 19.5122 24.5256 19.4384 24.5929 19.3712L25.7939 18.1737C27.4021 16.5692 27.4021 13.9689 25.7939 12.3644C24.1844 10.7585 21.5737 10.7585 19.9641 12.3644L18.7626 13.5624C18.3411 13.9827 17.659 13.9827 17.2375 13.5624L16.036 12.3644ZM17.5614 10.835C15.1087 8.38824 11.1333 8.38832 8.68065 10.8353C6.22657 13.2837 6.22657 17.2544 8.68065 19.7028L9.68773 20.707C9.73358 20.7852 9.79009 20.8589 9.85726 20.9259L15.7416 26.7966C16.3651 27.4187 17.1857 27.7262 18 27.72C18.8144 27.7262 19.6351 27.4187 20.2586 26.7966L26.1429 20.9259C26.2101 20.8589 26.2666 20.7852 26.3125 20.707L27.3193 19.703C29.7734 17.2546 29.7736 13.2837 27.3195 10.8353C24.8669 8.38832 20.8915 8.38824 18.4388 10.835C18.4387 10.8351 18.4389 10.835 18.4388 10.835L18.0001 11.2725L17.5614 10.835C17.5615 10.8351 17.5613 10.835 17.5614 10.835Z" fill="#4E3969"/>
</svg>
