<svg width="168" height="44" viewBox="0 0 168 44" fill="none" xmlns="http://www.w3.org/2000/svg">
<path d="M12.2123 7.59066L9.9289 7.41843L9.48084 10.0338C9.24131 11.4434 9.07725 12.4843 8.9332 13.5023L8.89777 13.7561L8.85134 14.0943L8.72599 15.0462L8.64724 15.0378C7.91438 14.962 7.16855 14.9278 6.4132 14.9305C5.19407 14.9358 3.97708 15.0334 2.77266 15.2224L0 15.654L0.726305 18.3712C0.748125 18.4532 0.769617 18.5342 0.790453 18.6145L0.817359 18.7176C0.832125 18.7747 0.846727 18.8317 0.861164 18.8888L0.931711 19.1712L0.978797 19.3661C1.13023 19.9972 1.28641 20.7148 1.51364 21.8009L1.72003 22.7904L1.84915 23.4014C2.50146 26.4627 2.93639 28.0779 3.69108 29.9936L3.75391 30.1517C4.96059 33.1606 6.65733 35.6791 9.08759 37.8224L9.15321 37.8802L9.12795 37.8574C13.0883 41.4556 19.3441 43.3927 27.8667 43.8265L28.6095 43.8642L29.2538 43.4915C35.4813 39.8865 39.7752 35.9332 42.0822 31.5646L42.1808 31.3755L42.2072 31.3173C43.3189 28.8766 43.8183 26.1439 43.7425 23.2405C43.6733 20.5879 43.3166 18.3989 42.6289 15.9827L42.5567 15.7318L42.4927 15.5134L42.441 15.3389L42.3821 15.1442L42.3025 14.8868C42.1846 14.5105 42.041 14.0716 41.8115 13.3817L41.3314 11.9414L41.2035 11.5534C40.7267 10.1026 40.4088 9.05464 40.0736 7.80114L39.418 5.34797L36.9749 6.0193L36.8035 6.06691C32.2988 7.33848 28.7336 9.6869 26.186 13.0736L26.0946 13.1962L25.9909 13.1158C21.7209 9.81742 17.1166 7.96039 12.2123 7.59066ZM35.9584 11.7007L36.0614 12.0281L36.1402 12.2755C36.2946 12.7569 36.4518 13.2374 36.6117 13.717L37.181 15.4273L37.3224 15.8574C37.3833 16.0446 37.4351 16.206 37.4819 16.3549L37.5624 16.6143L37.6231 16.8149L37.6592 16.9366L37.7145 17.1255L37.7531 17.2587C38.3503 19.3282 38.6479 21.1238 38.7066 23.3727L38.7089 23.4727C38.7514 25.5663 38.4019 27.477 37.6604 29.1405L37.651 29.161L37.6264 29.2083C35.91 32.4538 32.5636 35.6172 27.5417 38.6414L27.3771 38.7399L27.2367 38.731C20.3113 38.2766 15.4396 36.7185 12.5964 34.1919L12.4924 34.0984L12.4735 34.0819C10.6139 32.4582 9.33532 30.5587 8.39738 28.1912L8.35505 28.0837C8.33798 28.0398 8.32092 27.9962 8.30419 27.9523L8.25431 27.8218L8.20542 27.6913C7.61611 26.1053 7.23073 24.542 6.58022 21.4183L6.3776 20.448C6.34889 20.3117 6.32133 20.1812 6.29459 20.0556L6.27752 19.9755L6.29098 19.9753C7.63334 19.9579 8.96027 20.098 10.1911 20.45L13.0008 21.254L13.4827 17.5507L13.7816 15.235C13.7996 15.0969 13.8146 14.9835 13.8252 14.9045L13.8695 14.5799L13.8872 14.4507C13.943 14.0488 14.0014 13.6471 14.0666 13.2209L14.1097 12.9393L14.1807 12.9536C17.9594 13.7267 21.5452 15.6812 24.9713 18.8624L27.3945 21.1121L28.9177 18.1743L28.9751 18.0646C30.5012 15.1774 32.7641 13.0856 35.8429 11.7503L35.9582 11.7007H35.9584ZM26.9796 4.44778C28.2442 5.32006 28.5506 7.0382 27.6637 8.28546C26.7771 9.53273 25.0331 9.83696 23.7686 8.96467C22.504 8.09255 22.1975 6.37442 23.0844 5.12715C23.971 3.87988 25.715 3.57566 26.9796 4.44778ZM33.0656 0.495822C34.3096 1.36499 34.611 3.07705 33.7388 4.31988C32.8665 5.56272 31.151 5.86596 29.9073 4.99679C28.6634 4.12779 28.362 2.41557 29.2341 1.17273C30.1065 -0.0701037 31.8219 -0.373178 33.0656 0.495822Z" fill="url(#paint0_linear_2_9)"/>
<path fill-rule="evenodd" clip-rule="evenodd" d="M70.5228 29.7555C72.1313 29.7555 73.3962 30.2251 74.3177 31.1645V29.9819H79.0929V43.6188H74.544V42.2602C73.6559 43.3169 72.3155 43.8452 70.5228 43.8452C69.283 43.8452 68.1562 43.5559 67.1425 42.9772C66.1289 42.3986 65.3247 41.5725 64.7298 40.4989C64.135 39.4255 63.6625 38.1841 63.6625 36.7753C63.6625 35.3662 64.135 34.1292 64.7298 33.064C65.3247 31.999 66.1289 31.1812 67.1425 30.6109C68.1562 30.0407 69.283 29.7555 70.5228 29.7555ZM63.4983 26.0066V29.1265L54.6311 39.6686H63.875V43.6188H48.125V40.4989L56.9923 29.9568H48.125V26.0066H63.4983ZM71.528 33.5546C70.6903 33.5546 70.0034 33.8398 69.4672 34.41C68.9311 34.9805 68.663 35.7687 68.663 36.7752C68.663 37.7983 68.9311 38.5992 69.4672 39.1781C70.0034 39.7566 70.6903 40.0461 71.528 40.0461C72.3659 40.0461 73.0528 39.7566 73.589 39.1781C74.1251 38.5993 74.3932 37.7983 74.3932 36.7752C74.3932 35.7687 74.1251 34.9805 73.589 34.4102C73.0528 33.8398 72.3659 33.5546 71.528 33.5546ZM104.09 29.7555C105.447 29.7555 106.678 30.0364 107.784 30.5984C108.89 31.1602 109.765 31.9737 110.41 33.0389C111.044 34.0854 111.366 35.322 111.378 36.7489V36.8341C111.375 36.9024 111.35 37.2938 111.302 38.008H101.4C101.601 38.7126 101.991 39.2534 102.569 39.6309C103.147 40.0083 103.872 40.197 104.743 40.197C105.396 40.197 105.962 40.1047 106.439 39.9202C106.917 39.7358 107.398 39.4339 107.884 39.0146L110.398 41.6309C109.074 43.1071 107.139 43.845 104.592 43.845C103 43.845 101.601 43.5431 100.395 42.9393C99.1886 42.3354 98.2546 41.4968 97.5928 40.4232C96.931 39.3498 96.6001 38.1337 96.6001 36.7752C96.6001 35.4332 96.9226 34.2297 97.5675 33.1645C98.2126 32.0995 99.1048 31.265 100.244 30.6611C101.383 30.0573 102.665 29.7553 104.09 29.7553V29.7555ZM85.8638 24.7234C86.4671 24.7234 87.0534 24.7822 87.623 24.8996C88.1928 25.017 88.6619 25.1931 89.0305 25.4279L88.0243 28.7993C87.5551 28.5311 87.0777 28.3968 86.5917 28.3968C86.0891 28.3968 85.6996 28.5478 85.4231 28.8497C85.1467 29.1517 85.0084 29.5961 85.0084 30.1832V30.4853H88.2506V34.0578H85.1341V43.6188H80.359V30.133C80.359 28.4723 80.8574 27.1556 81.8543 26.1828C82.8513 25.2099 84.0711 24.7234 85.864 24.7234H85.8638ZM94.4577 24.7234C95.0608 24.7234 95.6472 24.7822 96.217 24.8996C96.7866 25.017 97.2558 25.1931 97.6243 25.4279L96.6181 28.7993C96.1489 28.5311 95.6715 28.3968 95.1857 28.3968C94.683 28.3968 94.2933 28.5478 94.0169 28.8497C93.7404 29.1517 93.6023 29.5961 93.6023 30.1832V30.4853H96.8443V34.0578H93.728V43.6188H88.9528V30.133C88.9528 28.4723 89.4512 27.1556 90.4482 26.1828C91.445 25.2099 92.6649 24.7234 94.4577 24.7234ZM104.114 33.152C103.377 33.152 102.762 33.3619 102.267 33.7812C101.773 34.2005 101.459 34.7707 101.325 35.4919H106.904C106.77 34.7707 106.456 34.2005 105.962 33.7812C105.467 33.3619 104.852 33.152 104.114 33.152ZM127.661 29.7555C129.269 29.7555 130.535 30.2251 131.456 31.1645V29.9819H136.231V43.6188H131.682V42.2602C130.794 43.3169 129.454 43.8452 127.661 43.8452C126.421 43.8452 125.294 43.5559 124.281 42.9772C123.267 42.3986 122.463 41.5725 121.868 40.4989C121.273 39.4255 120.976 38.1841 120.976 36.7753C120.976 35.3662 121.273 34.1292 121.868 33.064C122.463 31.999 123.267 31.1812 124.281 30.6109C125.294 30.0407 126.421 29.7555 127.661 29.7555ZM121.261 29.7555V34.0578L121.139 34.0442C120.758 34.0032 120.438 33.9825 120.18 33.9825C119.158 33.9825 118.358 34.2591 117.78 34.8127C117.202 35.3662 116.913 36.2132 116.913 37.3539V43.619H112.138V29.9819H116.687V31.6173C117.173 30.9967 117.805 30.5313 118.585 30.221C119.364 29.9107 120.256 29.7555 121.261 29.7555ZM128.666 33.5546C127.829 33.5546 127.142 33.8398 126.606 34.41C126.069 34.9805 125.801 35.7687 125.801 36.7752C125.801 37.7983 126.069 38.5992 126.606 39.1781C127.142 39.7566 127.829 40.0461 128.666 40.0461C129.504 40.0461 130.191 39.7566 130.727 39.1781C131.263 38.5993 131.531 37.7983 131.531 36.7752C131.531 35.7687 131.263 34.9805 130.727 34.4102C130.191 33.8398 129.504 33.5546 128.666 33.5546ZM146.282 29.7555C147.974 29.7555 149.335 30.2587 150.366 31.2651C151.396 32.2716 151.911 33.7896 151.911 35.8191V43.6188H147.136V36.5992C147.136 34.7374 146.391 33.8063 144.9 33.8063C144.079 33.8063 143.421 34.0747 142.927 34.6114C142.432 35.1483 142.185 35.9533 142.185 37.0268V43.6188H137.41V29.9821H141.959V31.4663C142.495 30.913 143.132 30.4894 143.869 30.1958C144.606 29.9023 145.411 29.7555 146.282 29.7555ZM160.31 43.8454C158.852 43.8454 157.537 43.5433 156.364 42.9394C155.191 42.3356 154.274 41.4969 153.612 40.4234C152.95 39.35 152.619 38.1339 152.619 36.7753C152.619 35.4333 152.95 34.2256 153.612 33.152C154.274 32.0786 155.187 31.2443 156.351 30.6486C157.516 30.0532 158.835 29.7555 160.31 29.7555C161.784 29.7555 163.108 30.0532 164.28 30.6486C165.453 31.2441 166.366 32.0744 167.02 33.1396C167.673 34.2046 168 35.4166 168 36.7752C168 38.1339 167.673 39.35 167.02 40.4234C166.366 41.4971 165.453 42.3356 164.28 42.9394C163.108 43.5433 161.784 43.8452 160.31 43.8452V43.8454ZM160.31 40.0461C161.147 40.0461 161.834 39.7566 162.37 39.1781C162.907 38.5993 163.175 37.7983 163.175 36.7752C163.175 35.7687 162.907 34.9805 162.37 34.4102C161.834 33.8398 161.147 33.5548 160.31 33.5548C159.472 33.5548 158.785 33.8398 158.249 34.4102C157.713 34.9805 157.444 35.7687 157.444 36.7752C157.444 37.7983 157.713 38.5992 158.249 39.1781C158.785 39.7566 159.472 40.0461 160.31 40.0461ZM65.2149 20.6214C64.2097 21.3426 63.0537 21.8961 61.7468 22.2819C60.4399 22.6677 59.1329 22.8606 57.8262 22.8606C55.9831 22.8606 54.3244 22.4706 52.85 21.6907C51.3756 20.9107 50.2194 19.8246 49.3817 18.4324C48.5439 17.0402 48.125 15.4636 48.125 13.7024C48.125 11.9411 48.5439 10.3643 49.3817 8.97208C50.2194 7.57984 51.3839 6.49379 52.8751 5.71394C54.3663 4.93393 56.05 4.54384 57.9266 4.54384C59.5687 4.54384 61.0431 4.82064 62.35 5.37426C63.6568 5.9277 64.7458 6.72447 65.6172 7.76438L62.4504 10.6326C61.261 9.32441 59.8368 8.67015 58.1779 8.67015C56.6702 8.67015 55.4553 9.12723 54.5338 10.0414C53.6122 10.9555 53.1515 12.1759 53.1515 13.7022C53.1515 14.6752 53.3609 15.5432 53.7799 16.3063C54.1988 17.0696 54.7851 17.665 55.5391 18.0927C56.293 18.5204 57.156 18.7343 58.1277 18.7343C59.0827 18.7343 59.9792 18.5414 60.8169 18.1556V15.9819L57.8669 15.982V12.2437H65.2149V20.6214ZM66.8244 8.87144H71.5996V22.5083H66.8244V8.87144ZM69.212 7.36181C68.3408 7.36181 67.637 7.11866 67.1008 6.6322C66.5646 6.14573 66.2966 5.54205 66.2966 4.82064C66.2966 4.09941 66.5646 3.49555 67.1008 3.00909C67.637 2.52263 68.3406 2.27948 69.212 2.27948C70.0831 2.27948 70.7869 2.51015 71.3231 2.97133C71.8593 3.43267 72.1273 4.02388 72.1273 4.74512C72.1273 5.50002 71.8593 6.12488 71.3231 6.61955C70.7869 7.11439 70.0831 7.36181 69.212 7.36181ZM88.0811 8.87144V22.5083H83.5322V21.1497C82.6442 22.2064 81.3039 22.7349 79.511 22.7349C78.2712 22.7349 77.1444 22.4454 76.1306 21.8667C75.1171 21.2881 74.3128 20.462 73.7179 19.3884C73.1232 18.315 72.8258 17.0738 72.8258 15.6648C72.8258 14.2559 73.1232 13.0188 73.7179 11.9536C74.3128 10.8885 75.1171 10.0708 76.1306 9.50057C77.1444 8.93021 78.2712 8.64503 79.511 8.64503C81.1194 8.64503 82.3845 9.11458 83.3061 10.054V8.87144H88.0811ZM80.5162 18.9356C81.3541 18.9356 82.041 18.6463 82.5771 18.0676C83.1133 17.4889 83.3814 16.688 83.3814 15.6648C83.3814 14.6584 83.1133 13.87 82.5771 13.2997C82.041 12.7293 81.3541 12.4443 80.5163 12.4443C79.6785 12.4443 78.9916 12.7293 78.4554 13.2997C77.9192 13.87 77.6512 14.6584 77.6512 15.6648C77.6512 16.688 77.9192 17.4889 78.4554 18.0676C78.9916 18.6463 79.6783 18.9356 80.5162 18.9356ZM94.861 22.7347C93.1854 22.7347 91.8828 22.3029 90.953 21.439C90.023 20.5753 89.558 19.3382 89.558 17.7279V3.83935H94.3332V17.4762C94.3332 17.9794 94.4631 18.3653 94.7227 18.6337C94.9824 18.9021 95.3469 19.0363 95.816 19.0363C96.2014 19.0363 96.5617 18.9525 96.8967 18.7846L97.0978 22.3826C96.3755 22.6177 95.6205 22.7365 94.861 22.7347ZM102.135 3.83935V17.4762C102.135 17.9794 102.265 18.3653 102.524 18.6337C102.784 18.9021 103.148 19.0363 103.618 19.0363C104.003 19.0363 104.363 18.9525 104.698 18.7846L104.899 22.3826C104.177 22.6177 103.422 22.7366 102.662 22.7349C100.987 22.7349 99.6844 22.3029 98.7545 21.439C97.8246 20.5753 97.3597 19.3382 97.3597 17.7279V3.83935H102.135ZM112.442 8.64503C113.917 8.64503 115.24 8.94269 116.413 9.53817C117.586 10.1336 118.499 10.9641 119.152 12.0291C119.806 13.0943 120.133 14.3063 120.133 15.6648C120.133 17.0234 119.806 18.2395 119.152 19.3129C118.499 20.3866 117.586 21.2253 116.413 21.8291C115.24 22.433 113.917 22.7349 112.442 22.7349C110.984 22.7349 109.669 22.4328 108.496 21.8291C107.323 21.2253 106.406 20.3865 105.744 19.3131C105.082 18.2395 104.752 17.0234 104.752 15.6648C104.752 14.3228 105.082 13.1151 105.744 12.0417C106.406 10.9682 107.319 10.1336 108.484 9.53817C109.648 8.94269 110.968 8.64503 112.442 8.64503ZM112.442 12.4441C111.604 12.4441 110.917 12.7293 110.381 13.2997C109.845 13.87 109.577 14.6584 109.577 15.6648C109.577 16.688 109.845 17.4889 110.381 18.0676C110.917 18.6463 111.604 18.9356 112.442 18.9356C113.28 18.9356 113.967 18.6463 114.503 18.0676C115.039 17.4889 115.307 16.688 115.307 15.6648C115.307 14.6584 115.039 13.87 114.503 13.2997C113.967 12.7293 113.28 12.4441 112.442 12.4441Z" fill="#650A91"/>
<defs>
<linearGradient id="paint0_linear_2_9" x1="3930.59" y1="530.011" x2="-2438.34" y2="6782.13" gradientUnits="userSpaceOnUse">
<stop stop-color="#FF9613"/>
<stop offset="0.24887" stop-color="#E338A1"/>
<stop offset="0.49829" stop-color="#992AA2"/>
<stop offset="0.75002" stop-color="#650A91"/>
<stop offset="1" stop-color="#4B1375"/>
</linearGradient>
</defs>
</svg>
