<svg width="44" height="44" viewBox="0 0 44 44" fill="none" xmlns="http://www.w3.org/2000/svg">
<rect x="44" y="44" width="44" height="44" rx="22" transform="rotate(-180 44 44)" fill="white"/>
<path fill-rule="evenodd" clip-rule="evenodd" d="M22.228 27.7071C21.8654 28.0976 21.2775 28.0976 20.9148 27.7071L16.272 22.7071C15.9093 22.3166 15.9093 21.6834 16.272 21.2929L20.9148 16.2929C21.2775 15.9024 21.8654 15.9024 22.228 16.2929C22.5907 16.6834 22.5907 17.3166 22.228 17.7071L19.1703 21L28.0714 21C28.5843 21 29 21.4477 29 22C29 22.5523 28.5843 23 28.0714 23L19.1703 23L22.228 26.2929C22.5907 26.6834 22.5907 27.3166 22.228 27.7071Z" fill="#FF9614"/>
</svg>
