<svg width="22" height="22" viewBox="0 0 22 22" fill="none" xmlns="http://www.w3.org/2000/svg">
<g id="pass-hide">
<path id="Vector" d="M4.12101 6.82081C3.25177 7.44138 2.54703 8.10495 2.00699 8.6898C0.786079 10.012 0.78608 11.988 2.00699 13.3102C3.59044 15.0251 6.58986 17.4167 11.0001 17.4167C12.188 17.4167 13.2734 17.2432 14.2564 16.9562L12.7322 15.432C12.1859 15.5292 11.6086 15.5833 11.0001 15.5833C7.30313 15.5833 4.7561 13.585 3.35393 12.0665C2.78154 11.4466 2.78154 10.5534 3.35393 9.93355C3.88455 9.35889 4.57912 8.71552 5.43793 8.13774L4.12101 6.82081Z" fill="#988FA1"/>
<path id="Vector_2" d="M7.82201 10.5219C7.79869 10.6779 7.78662 10.8375 7.78662 11C7.78662 12.7719 9.22305 14.2083 10.995 14.2083C11.1574 14.2083 11.3171 14.1962 11.4731 14.1729L7.82201 10.5219Z" fill="#988FA1"/>
<path id="Vector_3" d="M14.1772 11.4098L10.585 7.8176C10.7192 7.80048 10.8559 7.79166 10.9948 7.79166C12.7667 7.79166 14.2031 9.22808 14.2031 11C14.2031 11.1389 14.1943 11.2756 14.1772 11.4098Z" fill="#988FA1"/>
<path id="Vector_4" d="M16.6023 13.8351C17.4425 13.2644 18.1237 12.6321 18.646 12.0665C19.2184 11.4466 19.2184 10.5534 18.646 9.93355C17.2439 8.41502 14.6968 6.41667 10.9998 6.41667C10.4126 6.41667 9.85443 6.46708 9.32524 6.55797L7.7959 5.02867C8.76506 4.75072 9.83307 4.58334 10.9998 4.58334C15.4101 4.58334 18.4095 6.97496 19.9929 8.6898C21.2139 10.012 21.2139 11.988 19.9929 13.3102C19.4611 13.8862 18.7695 14.5386 17.9183 15.151L16.6023 13.8351Z" fill="#988FA1"/>
<path id="Vector_5" d="M1.84075 3.1369C1.48277 2.77892 1.48277 2.19852 1.84075 1.84054C2.19873 1.48256 2.77914 1.48256 3.13711 1.84054L20.1672 18.8707C20.5253 19.2286 20.5253 19.8091 20.1672 20.167C19.8093 20.525 19.2288 20.525 18.8709 20.167L1.84075 3.1369Z" fill="#988FA1"/>
</g>
</svg>
