<svg width="22" height="22" viewBox="0 0 22 22" fill="none" xmlns="http://www.w3.org/2000/svg">
<path fill-rule="evenodd" clip-rule="evenodd" d="M10.995 14.2083C12.7669 14.2083 14.2033 12.7719 14.2033 11C14.2033 9.22807 12.7669 7.79166 10.995 7.79166C9.22305 7.79166 7.78662 9.22807 7.78662 11C7.78662 12.7719 9.22305 14.2083 10.995 14.2083ZM10.995 12.3699C10.2384 12.3699 9.6251 11.7565 9.6251 11C9.6251 10.2435 10.2384 9.63012 10.995 9.63012C11.7515 9.63012 12.3648 10.2435 12.3648 11C12.3648 11.7565 11.7515 12.3699 10.995 12.3699Z" fill="#988FA1"/>
<path fill-rule="evenodd" clip-rule="evenodd" d="M11.0001 4.58334C6.58986 4.58334 3.59044 6.97497 2.00699 8.68981C0.786079 10.012 0.78608 11.988 2.00699 13.3102C3.59044 15.0251 6.58986 17.4167 11.0001 17.4167C15.4104 17.4167 18.4098 15.0251 19.9933 13.3102C21.2142 11.988 21.2142 10.012 19.9933 8.68981C18.4098 6.97497 15.4104 4.58334 11.0001 4.58334ZM3.35393 9.93356C4.7561 8.41503 7.30313 6.41668 11.0001 6.41668C14.6971 6.41668 17.2442 8.41503 18.6463 9.93356C19.2187 10.5534 19.2187 11.4466 18.6463 12.0665C17.2442 13.585 14.6971 15.5833 11.0001 15.5833C7.30313 15.5833 4.7561 13.585 3.35393 12.0665C2.78154 11.4466 2.78154 10.5534 3.35393 9.93356Z" fill="#988FA1"/>
</svg>
